<mxfile host="app.diagrams.net" modified="2023-11-07T05:19:51.739Z" agent="Mozilla/5.0 (Windows NT 10.0; Win64; x64) AppleWebKit/537.36 (KHTML, like Gecko) Chrome/119.0.0.0 Safari/537.36" etag="cSZ38sK2KdRKu7KsJLTS" version="22.0.8" type="github">
  <diagram name="페이지-1" id="RYOyBb5f2ITq-mbBepKT">
    <mxGraphModel dx="1531" dy="1869" grid="1" gridSize="10" guides="1" tooltips="1" connect="1" arrows="1" fold="1" page="1" pageScale="1" pageWidth="827" pageHeight="1169" math="0" shadow="0">
      <root>
        <mxCell id="0" />
        <mxCell id="1" parent="0" />
        <mxCell id="MbJJlgo7MRfOt8NDG3o3-18" style="rounded=0;orthogonalLoop=1;jettySize=auto;html=1;exitX=1;exitY=0.3333333333333333;exitDx=0;exitDy=0;exitPerimeter=0;entryX=0;entryY=0.5;entryDx=0;entryDy=0;endArrow=none;endFill=0;" edge="1" parent="1" source="MbJJlgo7MRfOt8NDG3o3-1" target="MbJJlgo7MRfOt8NDG3o3-5">
          <mxGeometry relative="1" as="geometry" />
        </mxCell>
        <mxCell id="MbJJlgo7MRfOt8NDG3o3-20" style="rounded=0;orthogonalLoop=1;jettySize=auto;html=1;exitX=1;exitY=0.3333333333333333;exitDx=0;exitDy=0;exitPerimeter=0;entryX=0;entryY=0.5;entryDx=0;entryDy=0;endArrow=none;endFill=0;" edge="1" parent="1" source="MbJJlgo7MRfOt8NDG3o3-1" target="MbJJlgo7MRfOt8NDG3o3-7">
          <mxGeometry relative="1" as="geometry" />
        </mxCell>
        <mxCell id="MbJJlgo7MRfOt8NDG3o3-22" style="rounded=0;orthogonalLoop=1;jettySize=auto;html=1;exitX=1;exitY=0.3333333333333333;exitDx=0;exitDy=0;exitPerimeter=0;entryX=0;entryY=0.5;entryDx=0;entryDy=0;endArrow=none;endFill=0;" edge="1" parent="1" source="MbJJlgo7MRfOt8NDG3o3-1" target="MbJJlgo7MRfOt8NDG3o3-8">
          <mxGeometry relative="1" as="geometry" />
        </mxCell>
        <mxCell id="MbJJlgo7MRfOt8NDG3o3-1" value="이용자" style="shape=umlActor;verticalLabelPosition=bottom;verticalAlign=top;html=1;" vertex="1" parent="1">
          <mxGeometry x="30" y="-1000" width="30" height="54" as="geometry" />
        </mxCell>
        <mxCell id="MbJJlgo7MRfOt8NDG3o3-4" value="게시판 서비스&amp;nbsp;" style="shape=umlFrame;whiteSpace=wrap;html=1;pointerEvents=0;" vertex="1" parent="1">
          <mxGeometry x="-10" y="-1150" width="690" height="520" as="geometry" />
        </mxCell>
        <mxCell id="MbJJlgo7MRfOt8NDG3o3-5" value="회원가입" style="rounded=1;whiteSpace=wrap;html=1;arcSize=40;fontColor=#000000;fillColor=#ffffc0;strokeColor=#ff0000;" vertex="1" parent="1">
          <mxGeometry x="160" y="-1010" width="120" height="40" as="geometry" />
        </mxCell>
        <mxCell id="MbJJlgo7MRfOt8NDG3o3-27" style="rounded=0;orthogonalLoop=1;jettySize=auto;html=1;exitX=1;exitY=0.5;exitDx=0;exitDy=0;entryX=0.5;entryY=1;entryDx=0;entryDy=0;dashed=1;" edge="1" parent="1" source="MbJJlgo7MRfOt8NDG3o3-7" target="MbJJlgo7MRfOt8NDG3o3-9">
          <mxGeometry relative="1" as="geometry" />
        </mxCell>
        <mxCell id="MbJJlgo7MRfOt8NDG3o3-7" value="게시판 보기" style="rounded=1;whiteSpace=wrap;html=1;arcSize=40;fontColor=#000000;fillColor=#ffffc0;strokeColor=#ff0000;" vertex="1" parent="1">
          <mxGeometry x="160" y="-900" width="120" height="40" as="geometry" />
        </mxCell>
        <mxCell id="MbJJlgo7MRfOt8NDG3o3-28" style="rounded=0;orthogonalLoop=1;jettySize=auto;html=1;exitX=1;exitY=0.5;exitDx=0;exitDy=0;entryX=0.5;entryY=1;entryDx=0;entryDy=0;dashed=1;" edge="1" parent="1" source="MbJJlgo7MRfOt8NDG3o3-8" target="MbJJlgo7MRfOt8NDG3o3-9">
          <mxGeometry relative="1" as="geometry" />
        </mxCell>
        <mxCell id="MbJJlgo7MRfOt8NDG3o3-8" value="게시글 보기" style="rounded=1;whiteSpace=wrap;html=1;arcSize=40;fontColor=#000000;fillColor=#ffffc0;strokeColor=#ff0000;" vertex="1" parent="1">
          <mxGeometry x="160" y="-800" width="120" height="40" as="geometry" />
        </mxCell>
        <mxCell id="MbJJlgo7MRfOt8NDG3o3-19" style="rounded=0;orthogonalLoop=1;jettySize=auto;html=1;exitX=0;exitY=0.5;exitDx=0;exitDy=0;endArrow=none;endFill=0;" edge="1" parent="1" source="MbJJlgo7MRfOt8NDG3o3-9" target="MbJJlgo7MRfOt8NDG3o3-1">
          <mxGeometry relative="1" as="geometry">
            <mxPoint x="60" y="-980" as="targetPoint" />
          </mxGeometry>
        </mxCell>
        <mxCell id="MbJJlgo7MRfOt8NDG3o3-24" value="&amp;lt;&amp;lt;include&amp;gt;&amp;gt;" style="edgeStyle=orthogonalEdgeStyle;rounded=0;orthogonalLoop=1;jettySize=auto;html=1;exitX=1;exitY=0.5;exitDx=0;exitDy=0;entryX=0;entryY=0.5;entryDx=0;entryDy=0;dashed=1;" edge="1" parent="1" source="MbJJlgo7MRfOt8NDG3o3-9" target="MbJJlgo7MRfOt8NDG3o3-10">
          <mxGeometry relative="1" as="geometry" />
        </mxCell>
        <mxCell id="MbJJlgo7MRfOt8NDG3o3-9" value="회원 로그인" style="rounded=1;whiteSpace=wrap;html=1;arcSize=40;fontColor=#000000;fillColor=#ffffc0;strokeColor=#ff0000;" vertex="1" parent="1">
          <mxGeometry x="280" y="-1120" width="120" height="40" as="geometry" />
        </mxCell>
        <mxCell id="MbJJlgo7MRfOt8NDG3o3-10" value="인증" style="rounded=1;whiteSpace=wrap;html=1;arcSize=40;fontColor=#000000;fillColor=#ffffc0;strokeColor=#ff0000;" vertex="1" parent="1">
          <mxGeometry x="540" y="-1120" width="120" height="40" as="geometry" />
        </mxCell>
        <mxCell id="MbJJlgo7MRfOt8NDG3o3-26" value="&amp;lt;&amp;lt;extend&amp;gt;&amp;gt;" style="rounded=0;orthogonalLoop=1;jettySize=auto;html=1;exitX=0;exitY=0.5;exitDx=0;exitDy=0;entryX=1;entryY=0.5;entryDx=0;entryDy=0;dashed=1;" edge="1" parent="1" source="MbJJlgo7MRfOt8NDG3o3-11" target="MbJJlgo7MRfOt8NDG3o3-9">
          <mxGeometry relative="1" as="geometry" />
        </mxCell>
        <mxCell id="MbJJlgo7MRfOt8NDG3o3-11" value="로그인 실패" style="rounded=1;whiteSpace=wrap;html=1;arcSize=40;fontColor=#000000;fillColor=#ffffc0;strokeColor=#ff0000;" vertex="1" parent="1">
          <mxGeometry x="540" y="-1030" width="120" height="40" as="geometry" />
        </mxCell>
        <mxCell id="MbJJlgo7MRfOt8NDG3o3-29" style="rounded=0;orthogonalLoop=1;jettySize=auto;html=1;exitX=0;exitY=0.5;exitDx=0;exitDy=0;entryX=1;entryY=0.5;entryDx=0;entryDy=0;dashed=1;" edge="1" parent="1" source="MbJJlgo7MRfOt8NDG3o3-12" target="MbJJlgo7MRfOt8NDG3o3-7">
          <mxGeometry relative="1" as="geometry" />
        </mxCell>
        <mxCell id="MbJJlgo7MRfOt8NDG3o3-12" value="게시판 정렬" style="rounded=1;whiteSpace=wrap;html=1;arcSize=40;fontColor=#000000;fillColor=#ffffc0;strokeColor=#ff0000;" vertex="1" parent="1">
          <mxGeometry x="370" y="-930" width="120" height="40" as="geometry" />
        </mxCell>
        <mxCell id="MbJJlgo7MRfOt8NDG3o3-31" style="edgeStyle=none;rounded=0;orthogonalLoop=1;jettySize=auto;html=1;exitX=0;exitY=0.5;exitDx=0;exitDy=0;entryX=1;entryY=0.5;entryDx=0;entryDy=0;dashed=1;" edge="1" parent="1" source="MbJJlgo7MRfOt8NDG3o3-13" target="MbJJlgo7MRfOt8NDG3o3-7">
          <mxGeometry relative="1" as="geometry" />
        </mxCell>
        <mxCell id="MbJJlgo7MRfOt8NDG3o3-13" value="게시판 검색" style="rounded=1;whiteSpace=wrap;html=1;arcSize=40;fontColor=#000000;fillColor=#ffffc0;strokeColor=#ff0000;" vertex="1" parent="1">
          <mxGeometry x="370" y="-870" width="120" height="40" as="geometry" />
        </mxCell>
        <mxCell id="MbJJlgo7MRfOt8NDG3o3-32" style="edgeStyle=none;rounded=0;orthogonalLoop=1;jettySize=auto;html=1;exitX=0;exitY=0.5;exitDx=0;exitDy=0;entryX=1;entryY=0.5;entryDx=0;entryDy=0;dashed=1;" edge="1" parent="1" source="MbJJlgo7MRfOt8NDG3o3-14" target="MbJJlgo7MRfOt8NDG3o3-8">
          <mxGeometry relative="1" as="geometry" />
        </mxCell>
        <mxCell id="MbJJlgo7MRfOt8NDG3o3-14" value="게시글 쓰기,수정,삭제" style="rounded=1;whiteSpace=wrap;html=1;arcSize=40;fontColor=#000000;fillColor=#ffffc0;strokeColor=#ff0000;" vertex="1" parent="1">
          <mxGeometry x="370" y="-800" width="120" height="40" as="geometry" />
        </mxCell>
        <mxCell id="MbJJlgo7MRfOt8NDG3o3-33" style="edgeStyle=none;rounded=0;orthogonalLoop=1;jettySize=auto;html=1;exitX=0;exitY=0.5;exitDx=0;exitDy=0;dashed=1;" edge="1" parent="1" source="MbJJlgo7MRfOt8NDG3o3-15">
          <mxGeometry relative="1" as="geometry">
            <mxPoint x="280" y="-780" as="targetPoint" />
          </mxGeometry>
        </mxCell>
        <mxCell id="MbJJlgo7MRfOt8NDG3o3-15" value="댓글 보기, 쓰기,수정,삭제" style="rounded=1;whiteSpace=wrap;html=1;arcSize=40;fontColor=#000000;fillColor=#ffffc0;strokeColor=#ff0000;" vertex="1" parent="1">
          <mxGeometry x="370" y="-750" width="120" height="40" as="geometry" />
        </mxCell>
        <mxCell id="MbJJlgo7MRfOt8NDG3o3-34" value="DB" style="html=1;dropTarget=0;whiteSpace=wrap;" vertex="1" parent="1">
          <mxGeometry x="700" y="-960" width="180" height="90" as="geometry" />
        </mxCell>
        <mxCell id="MbJJlgo7MRfOt8NDG3o3-35" value="" style="shape=module;jettyWidth=8;jettyHeight=4;" vertex="1" parent="MbJJlgo7MRfOt8NDG3o3-34">
          <mxGeometry x="1" width="20" height="20" relative="1" as="geometry">
            <mxPoint x="-27" y="7" as="offset" />
          </mxGeometry>
        </mxCell>
      </root>
    </mxGraphModel>
  </diagram>
</mxfile>
